<svg
  viewBox="0 0 912 225"
  preserveAspectRatio="xMidYMid meet"
  width="100%" height="100%"
  xmlns="http://www.w3.org/2000/svg"
>
<path d="M 60,0 L 59,1 L 52,1 L 51,2 L 47,2 L 46,3 L 43,3 L 42,4 L 40,4 L 39,5 L 37,5 L 36,6 L 35,6 L 34,7 L 33,7 L 31,9 L 30,9 L 28,11 L 27,11 L 25,13 L 24,13 L 13,24 L 13,25 L 10,28 L 10,29 L 9,30 L 9,31 L 7,33 L 7,34 L 6,35 L 6,36 L 5,37 L 5,39 L 4,40 L 4,42 L 3,43 L 3,46 L 2,47 L 2,51 L 1,52 L 1,59 L 0,60 L 0,165 L 1,166 L 1,173 L 2,174 L 2,179 L 3,180 L 3,182 L 4,183 L 4,185 L 5,186 L 5,188 L 6,189 L 6,190 L 7,191 L 7,192 L 9,194 L 9,195 L 11,197 L 11,198 L 13,200 L 13,201 L 24,212 L 25,212 L 27,214 L 28,214 L 30,216 L 31,216 L 33,218 L 34,218 L 35,219 L 36,219 L 37,220 L 39,220 L 40,221 L 42,221 L 43,222 L 45,222 L 46,223 L 50,223 L 51,224 L 59,224 L 60,225 L 852,225 L 853,224 L 861,224 L 862,223 L 866,223 L 867,222 L 870,222 L 871,221 L 873,221 L 874,220 L 875,220 L 876,219 L 877,219 L 878,218 L 879,218 L 880,217 L 881,217 L 883,215 L 884,215 L 886,213 L 887,213 L 892,208 L 893,208 L 895,206 L 895,205 L 900,200 L 900,199 L 902,197 L 902,196 L 904,194 L 904,193 L 905,192 L 905,191 L 906,190 L 906,189 L 907,188 L 907,187 L 908,186 L 908,184 L 909,183 L 909,180 L 910,179 L 910,176 L 911,175 L 911,168 L 912,167 L 912,148 L 913,147 L 913,79 L 912,78 L 912,58 L 911,57 L 911,50 L 910,49 L 910,46 L 909,45 L 909,42 L 908,41 L 908,39 L 907,38 L 907,37 L 906,36 L 906,35 L 905,34 L 905,33 L 904,32 L 904,31 L 902,29 L 902,28 L 900,26 L 900,25 L 895,20 L 895,19 L 893,17 L 892,17 L 887,12 L 886,12 L 884,10 L 883,10 L 881,8 L 880,8 L 879,7 L 878,7 L 877,6 L 876,6 L 875,5 L 873,5 L 872,4 L 870,4 L 869,3 L 867,3 L 866,2 L 862,2 L 861,1 L 853,1 L 852,0 L 597,0 L 596,1 L 591,1 L 590,2 L 586,2 L 585,3 L 583,3 L 582,4 L 579,4 L 578,5 L 576,5 L 575,6 L 573,6 L 572,7 L 571,7 L 570,8 L 569,8 L 568,9 L 567,9 L 566,10 L 565,10 L 564,11 L 563,11 L 562,12 L 561,12 L 560,13 L 559,13 L 557,15 L 556,15 L 553,18 L 552,18 L 543,27 L 543,28 L 539,32 L 539,33 L 536,36 L 536,37 L 534,39 L 534,40 L 531,43 L 531,44 L 528,47 L 528,48 L 525,51 L 525,52 L 510,67 L 509,67 L 506,70 L 505,70 L 503,72 L 502,72 L 501,73 L 500,73 L 499,74 L 498,74 L 497,75 L 496,75 L 495,76 L 493,76 L 492,77 L 491,77 L 490,78 L 488,78 L 487,79 L 484,79 L 483,80 L 480,80 L 479,81 L 474,81 L 473,82 L 462,82 L 461,83 L 452,83 L 451,82 L 440,82 L 439,81 L 434,81 L 433,80 L 429,80 L 428,79 L 426,79 L 425,78 L 423,78 L 422,77 L 420,77 L 419,76 L 417,76 L 416,75 L 415,75 L 414,74 L 413,74 L 411,72 L 410,72 L 409,71 L 408,71 L 406,69 L 405,69 L 403,67 L 402,67 L 389,54 L 389,53 L 385,49 L 385,48 L 382,45 L 382,44 L 379,41 L 379,40 L 377,38 L 377,37 L 374,34 L 374,33 L 370,29 L 370,28 L 359,17 L 358,17 L 356,15 L 355,15 L 353,13 L 352,13 L 351,12 L 350,12 L 348,10 L 347,10 L 346,9 L 345,9 L 344,8 L 342,8 L 341,7 L 340,7 L 339,6 L 337,6 L 336,5 L 334,5 L 333,4 L 331,4 L 330,3 L 327,3 L 326,2 L 322,2 L 321,1 L 316,1 L 315,0 Z" fill="rgb(67, 96, 90)" />
</svg>
